<?xml version="1.0" encoding="utf-8"?>
<!-- Generator: Adobe Illustrator 20.1.0, SVG Export Plug-In . SVG Version: 6.00 Build 0)  -->
<svg version="1.1" id="Layer_1" xmlns="http://www.w3.org/2000/svg" xmlns:xlink="http://www.w3.org/1999/xlink" x="0px" y="0px"
	 viewBox="0 0 432 432" enable-background="new 0 0 432 432" xml:space="preserve">
<g opacity="0.2">
	<g>
		<g>
			<polygon fill="#FFFFFF" points="216.2,215.9 216,215.9 216,215.8 216,91.3 216.2,91.3 216.2,91.4 			"/>
		</g>
		<g>
			<path fill="#FFFFFF" d="M215.5,216.3l62.8-62.9l0.1,0.1l16.8,16.8L215.5,216.3z M278.3,153.7l-61.6,61.6l78-45.1L278.3,153.7z"/>
		</g>
		<g>
			<polygon fill="#FFFFFF" points="431.6,215.8 431.6,215.8 431.6,215.8 			"/>
		</g>
		<g>
			<path fill="#FFFFFF" d="M431.7,215.9h-216l0.3-0.2l200-115.5l0.1,0l15.5,7.8V215.9z M340.5,215.7h90.9V108.1l-15.4-7.7l-121,69.9
				L340.5,215.7z M216.5,215.7h123.7l-45.3-45.3L216.5,215.7z"/>
		</g>
		<g>
			<path fill="#FFFFFF" d="M216,216.2V91.1l0.2,0.2l45.6,45.6l0,0.1L216,216.2z M216.2,91.6v123.8l45.3-78.5L216.2,91.6z"/>
		</g>
		<g>
			<path fill="#FFFFFF" d="M215.6,216.4l0.4-0.7l45.6-79l16.8,16.8l-0.1,0.1L215.6,216.4z M261.7,137.1l-45.1,78.1l61.6-61.6
				L261.7,137.1z"/>
		</g>
		<g>
			<path fill="#FFFFFF" d="M340.7,431.5h-125l0.3-0.2l78.9-45.6L340.7,431.5z M216.5,431.3h123.7l-45.3-45.3L216.5,431.3z"/>
		</g>
		<g>
			<polygon fill="#FFFFFF" points="216,431.6 216,431.4 216,323.5 216.2,323.5 216.2,323.6 216.2,431.4 			"/>
		</g>
		<g>
			<path fill="#FFFFFF" d="M216.2,323.8l-0.2-0.1l-15.6-7.8l15.8-9.1V323.8z M200.9,315.8l15.1,7.6v-16.3L200.9,315.8z"/>
		</g>
		<g>
			<polygon fill="#FFFFFF" points="216.1,215.9 216.1,215.9 216.1,215.7 			"/>
		</g>
		<g>
			<polygon fill="#FFFFFF" points="216.1,431.5 216.1,431.5 216.1,431.3 			"/>
		</g>
		<g>
			<polygon fill="#FFFFFF" points="216.2,431.5 215.8,431.5 216.2,431.1 			"/>
		</g>
		<g>
			<path fill="#FFFFFF" d="M216.1,431.5h-0.4l0.3-0.2l62.3-62.3l0.1,0.1l16.8,16.8L216.1,431.5z M278.3,369.3l-61.6,61.6l78-45.1
				L278.3,369.3z"/>
		</g>
		<g>
			<polygon fill="#FFFFFF" points="216.2,323.7 216,323.7 216,323.6 216,306.8 216.2,306.8 216.2,306.9 			"/>
		</g>
		<g>
			<polygon fill="#FFFFFF" points="216.1,215.9 216.1,215.9 216.1,215.7 			"/>
		</g>
		<g>
			<path fill="#FFFFFF" d="M200.6,316l-56.5-28.3l0.1-0.1l26.4-26.4l0.1,0.1l45.6,45.6l-0.1,0.1L200.6,316z M144.5,287.6l56.2,28.1
				l15.3-8.8l-45.4-45.4L144.5,287.6z"/>
		</g>
		<g>
			<polygon fill="#FFFFFF" points="216.1,215.9 216.1,215.9 216.1,215.7 			"/>
		</g>
		<g>
			<path fill="#FFFFFF" d="M216.2,307.2l-45.8-45.8l45.8-45.8V307.2z M170.7,261.4l45.3,45.3v-90.6L170.7,261.4z"/>
		</g>
		<g>
			<polygon fill="#FFFFFF" points="216.2,307 216,307 216,306.9 216,215.7 216.2,215.7 216.2,215.8 			"/>
		</g>
		<g>
			<polygon fill="#FFFFFF" points="216.1,431.4 216.1,431.4 216.1,431.4 			"/>
		</g>
		<g>
			<polygon fill="#FFFFFF" points="216.1,307 216.1,306.8 216.1,306.8 			"/>
		</g>
		<g>
			<polygon fill="#FFFFFF" points="431.6,215.8 431.6,215.8 431.6,215.8 			"/>
		</g>
		<g>
			<polygon fill="#FFFFFF" points="431.6,215.8 431.6,215.8 431.6,215.8 			"/>
		</g>
		<g>
			<polygon fill="#FFFFFF" points="216.1,91.4 216.1,91.4 216.1,91.4 			"/>
		</g>
		<g>
			<polygon fill="#FFFFFF" points="216.1,431.4 216.1,431.4 216.1,431.4 			"/>
		</g>
		<g>
			<path fill="#FFFFFF" d="M79.5,385.9L79.5,385.9l-16.8-16.8l81.6-81.6l56.6,28.3l-0.2,0.1L79.5,385.9z M63,369.1l16.5,16.5
				l120.9-69.8l-56.1-28.1L63,369.1z"/>
		</g>
		<g>
			<polygon fill="#FFFFFF" points="216.1,91.5 216,91.3 216.1,91.4 216.1,91.3 216.5,91.3 			"/>
		</g>
		<g>
			<path fill="#FFFFFF" d="M170.6,261.5L170.6,261.5l-45.8-45.8h91.6l-0.2,0.2L170.6,261.5z M125.3,215.9l45.3,45.3l45.3-45.3H125.3
				z"/>
		</g>
		<g>
			<path fill="#FFFFFF" d="M287.9,359.6l-23.7-11.9l0.1-0.1l76.2-132l45.7,45.7l-0.1,0.1L287.9,359.6z M264.5,347.7l23.4,11.7l98-98
				L340.5,216L264.5,347.7z"/>
		</g>
		<g>
			<path fill="#FFFFFF" d="M431.7,307.2l-0.2-0.2l-45.6-45.6l0.1-0.1l45.7-45.7V307.2z M386.2,261.4l45.3,45.3v-90.6L386.2,261.4z"
				/>
		</g>
		<g>
			<path fill="#FFFFFF" d="M386,261.5L386,261.5l-45.8-45.8h91.6l-0.2,0.2L386,261.5z M340.7,215.9l45.3,45.3l45.3-45.3H340.7z"/>
		</g>
		<g>
			<path fill="#FFFFFF" d="M261.7,352.6l-12.8-12.8l15.6,7.8L261.7,352.6z M250,340.6l11.6,11.6l2.6-4.5L250,340.6z"/>
		</g>
		<g>
			<path fill="#FFFFFF" d="M264.4,347.9l-15.1-7.5L216,307v-91.3h124.7l-0.1,0.2L264.4,347.9z M249.5,340.2l14.8,7.4l76-131.7H216.2
				v91L249.5,340.2z"/>
		</g>
		<g>
			<path fill="#FFFFFF" d="M216,431.8V323.4l0.2,0.1l33.4,16.7l12.3,12.3l0,0.1L216,431.8z M216.2,323.8V431l45.3-78.5l-12.1-12.1
				L216.2,323.8z"/>
		</g>
		<g>
			<path fill="#FFFFFF" d="M250,340.6l-34-17v-17L250,340.6z M216.2,323.5l32.7,16.4l-32.7-32.7V323.5z"/>
		</g>
		<g>
			<rect x="431.4" y="215.8" fill="#FFFFFF" width="0.2" height="91.1"/>
		</g>
		<g>
			<path fill="#FFFFFF" d="M216,431.6v-0.3l0,0l45.6-79l16.8,16.8l-0.1,0.1L216,431.6z M261.7,352.6l-45.1,78.1l61.6-61.6
				L261.7,352.6z"/>
		</g>
		<g>
			<path fill="#FFFFFF" d="M294.9,385.9l-16.8-16.8l0.1-0.1l9.7-9.7l28.4,14.2L294.9,385.9z M278.4,369.1l16.5,16.5l20.9-12.1
				l-27.9-14L278.4,369.1z"/>
		</g>
		<g>
			<path fill="#FFFFFF" d="M278.3,369.3L278.3,369.3l-16.8-16.8l0-0.1l2.8-4.8l23.8,11.9l-0.1,0.1L278.3,369.3z M261.8,352.4
				l16.5,16.5l9.4-9.4l-23.3-11.7L261.8,352.4z"/>
		</g>
		<g>
			<path fill="#FFFFFF" d="M432,431.5h-91.6l-45.7-45.7l21.3-12.3l0.1,0L432,431.5z M340.5,431.3h90.6l-115-57.5l-21,12.1
				L340.5,431.3z"/>
		</g>
		<g>
			<rect x="216.1" y="431.3" fill="#FFFFFF" width="124.4" height="0.2"/>
		</g>
		<g>
			<path fill="#FFFFFF" d="M431.7,431.5l-0.2-0.1l-115.6-57.8l0.2-0.1l115.6-66.8V431.5z M316.3,373.6l115.1,57.6V307.1L316.3,373.6
				z"/>
		</g>
		<g>
			<rect x="340.5" y="431.3" fill="#FFFFFF" width="91.1" height="0.2"/>
		</g>
		<g>
			<rect x="431.4" y="306.9" fill="#FFFFFF" width="0.2" height="124.4"/>
		</g>
		<g>
			<path fill="#FFFFFF" d="M316.1,373.7L316.1,373.7l-28.4-14.2l0.1-0.1l98.2-98.2l0.1,0.1l45.6,45.6L316.1,373.7z M288.1,359.5
				l28,14l115.3-66.6L386,261.5L288.1,359.5z"/>
		</g>
		<g>
			<polygon fill="#FFFFFF" points="431.7,431.4 431.4,431.4 431.7,431.4 			"/>
		</g>
		<g>
			<path fill="#FFFFFF" d="M359.8,72.2l-47.3-23.6l0.1-0.1l27.9-48.4l45.7,45.7l-0.1,0.1L359.8,72.2z M312.8,48.5L359.7,72
				l26.2-26.2L340.5,0.4L312.8,48.5z"/>
		</g>
		<g>
			<polygon fill="#FFFFFF" points="312.7,48.7 312.6,48.6 216.1,0.3 216.1,0.2 312.6,48.4 340.4,0.2 340.6,0.3 			"/>
		</g>
		<g>
			<path fill="#FFFFFF" d="M431.7,91.6l-0.2-0.2l-45.6-45.6l0.1-0.1L431.7,0V91.6z M386.2,45.8l45.3,45.3V0.5L386.2,45.8z"/>
		</g>
		<g>
			<polygon fill="#FFFFFF" points="386,46 340.4,0.3 340.6,0.2 386,45.7 431.5,0.2 431.6,0.3 			"/>
		</g>
		<g>
			<polygon fill="#FFFFFF" points="216.1,0.4 216.1,0.4 216.1,0.1 			"/>
		</g>
		<g>
			<polygon fill="#FFFFFF" points="216.1,0.3 216.1,0.3 216.1,0.3 			"/>
		</g>
		<g>
			<rect x="431.4" y="0.3" fill="#FFFFFF" width="0.2" height="91.1"/>
		</g>
		<g>
			<polygon fill="#FFFFFF" points="216.1,0.3 216.1,0.3 216.1,0.3 			"/>
		</g>
		<g>
			<path fill="#FFFFFF" d="M0.1,216.4l0.4-0.7l45.6-79L63,153.6L0.1,216.4z M46.2,137.1L1.1,215.2l61.6-61.6L46.2,137.1z"/>
		</g>
		<g>
			<rect x="0.6" y="431.3" fill="#FFFFFF" width="124.4" height="0.2"/>
		</g>
		<g>
			<polygon fill="#FFFFFF" points="170.6,46 170.5,45.9 125,0.3 125.1,0.2 170.6,45.7 216,0.2 216.2,0.3 			"/>
		</g>
		<g>
			<polygon fill="#FFFFFF" points="0.7,431.4 0.6,431.3 46,352.5 0.6,307 0.7,306.8 46.3,352.4 46.3,352.5 			"/>
		</g>
		<g>
			<polygon fill="#FFFFFF" points="46.2,352.6 46.1,352.5 0.6,307 0.7,306.8 46.2,352.3 97,264.1 0.5,215.9 0.6,215.8 46,136.9 
				0.6,91.4 0.7,91.3 46.3,136.9 46.3,137 0.8,215.8 97.3,264 97.3,264.1 			"/>
		</g>
		<g>
			<path fill="#FFFFFF" d="M0.6,215.8"/>
		</g>
		<g>
			<path fill="#FFFFFF" d="M62.8,153.7L62.8,153.7L46,136.9l0-0.1L125,0.1l45.7,45.7l-0.1,0.1L62.8,153.7z M46.3,136.9l16.5,16.5
				L170.4,45.8L125.1,0.4L46.3,136.9z"/>
		</g>
		<g>
			<path fill="#FFFFFF" d="M416.1,100.4L416.1,100.4l-56.5-28.3L386,45.7l45.7,45.7l-0.1,0.1L416.1,100.4z M359.9,72.1l56.2,28.1
				l15.3-8.8L386,46L359.9,72.1z"/>
		</g>
		<g>
			<path fill="#FFFFFF" d="M294.9,170.4l-16.8-16.8l0.1-0.1L359.7,72l56.6,28.3l-0.2,0.1L294.9,170.4z M278.4,153.6l16.5,16.5
				l120.9-69.8l-56.1-28.1L278.4,153.6z"/>
		</g>
		<g>
			<polygon fill="#FFFFFF" points="431.6,91.4 431.6,91.4 431.6,91.4 			"/>
		</g>
		<g>
			<path fill="#FFFFFF" d="M431.7,108.2l-15.8-7.9l15.8-9.1V108.2z M416.3,100.3l15.1,7.6V91.5L416.3,100.3z"/>
		</g>
		<g>
			<path fill="#FFFFFF" d="M261.7,137.1L216,91.4V0.1l96.8,48.4l-0.1,0.1L261.7,137.1z M216.2,91.3l45.4,45.4l50.9-88.2L216.2,0.4
				V91.3z"/>
		</g>
		<g>
			<path fill="#FFFFFF" d="M278.3,153.7L278.3,153.7l-16.8-16.8l0-0.1l51-88.5l0.1,0l47.2,23.6L278.3,153.7z M261.8,136.9l16.5,16.5
				l81.3-81.3l-46.9-23.5L261.8,136.9z"/>
		</g>
		<g>
			<polygon fill="#FFFFFF" points="216,91.5 216,91.4 216,0.1 216.2,0.1 216.2,0.3 216.2,91.4 			"/>
		</g>
		<g>
			<rect x="431.4" y="108" fill="#FFFFFF" width="0.2" height="107.8"/>
		</g>
		<g>
			<path fill="#FFFFFF" d="M0.1,432l0.4-0.7l45.6-79L63,369.1L0.1,432z M46.2,352.6L1.1,430.7l61.6-61.6L46.2,352.6z"/>
		</g>
		<g>
			<path fill="#FFFFFF" d="M0,431.9L62.8,369l0.1,0.1l16.8,16.8l-0.1,0.1L0,431.9z M62.8,369.3L1.3,430.9l78-45.1L62.8,369.3z"/>
		</g>
		<g>
			<path fill="#FFFFFF" d="M125.3,431.5H0.2l0.3-0.2l78.9-45.6l0.1,0.1L125.3,431.5z M1,431.3h123.7l-45.3-45.3L1,431.3z"/>
		</g>
		<g>
			<path fill="#FFFFFF" d="M216.2,91.6l-0.2-0.2l-45.6-45.6l0.1-0.1L216.2,0V91.6z M170.7,45.8L216,91.1V0.5L170.7,45.8z"/>
		</g>
		<g>
			<rect x="125" y="431.3" fill="#FFFFFF" width="91.1" height="0.2"/>
		</g>
		<g>
			<path fill="#FFFFFF" d="M216.2,431.5H125l0,0l-45.6-45.6l0.1-0.1l121.2-70l15.6,7.8V431.5z M125.1,431.3H216V323.6l-15.4-7.7
				l-121,69.9L125.1,431.3z"/>
		</g>
		<g>
			<path fill="#FFFFFF" d="M62.8,369.3L62.8,369.3L46,352.5l0-0.1l51-88.5l0.1,0l47.2,23.6l-0.1,0.1L62.8,369.3z M46.3,352.4
				L62.8,369l81.3-81.3l-46.9-23.5L46.3,352.4z"/>
		</g>
		<g>
			<path fill="#FFFFFF" d="M144.3,287.8L97,264.1l0.1-0.1l27.9-48.4l45.7,45.7L144.3,287.8z M97.3,264l46.9,23.5l26.2-26.2
				L125.1,216L97.3,264z"/>
		</g>
		<g>
			<path fill="#FFFFFF" d="M0,216.3l62.8-62.9l0.1,0.1l16.8,16.8l-0.1,0.1L0,216.3z M62.8,153.7L1.3,215.3l78-45.1L62.8,153.7z"/>
		</g>
		<g>
			<path fill="#FFFFFF" d="M79.5,170.4L79.5,170.4l-16.8-16.8L170.6,45.7l0.1,0.1l45.6,45.6l-0.1,0.1L79.5,170.4z M63,153.6
				l16.5,16.5l136.4-78.8L170.6,46L63,153.6z"/>
		</g>
		<g>
			<path fill="#FFFFFF" d="M97.2,264.2L97.2,264.2l-97-48.5h125l-0.1,0.2L97.2,264.2z M1.1,215.9l96,48l27.7-48H1.1z"/>
		</g>
		<g>
			<path fill="#FFFFFF" d="M216.2,215.9H0.2l0.3-0.2L216.2,91.2V215.9z M125.1,215.7H216V91.5L79.7,170.3L125.1,215.7z M1,215.7
				h123.7l-45.3-45.3L1,215.7z"/>
		</g>
	</g>
</g>
</svg>
