<?xml version="1.0" encoding="utf-8"?>
<!-- Generator: Adobe Illustrator 20.0.0, SVG Export Plug-In . SVG Version: 6.00 Build 0)  -->
<svg version="1.1" id="Layer_1" xmlns="http://www.w3.org/2000/svg" xmlns:xlink="http://www.w3.org/1999/xlink" x="0px" y="0px"
	 viewBox="0 0 167.3 81.9" style="enable-background:new 0 0 167.3 81.9;" xml:space="preserve">
<style type="text/css">
	.st0{fill:#5A6469;}
</style>
<g id="group-71" transform="translate(3900 -5)">
	<path id="path" class="st0" d="M-3888.4,5l-4.7,11.4V5h-6.9v31.2h6.9V23.3l4.8,12.9h7.8l-6.9-17.3l6-13.8H-3888.4z"/>
	<path id="path-2" class="st0" d="M-3879.1,10.8h6.4V5h-6.4V10.8z M-3879.1,5v31.2h6.4V12.9h-6.4V5z"/>
	<path id="path-3" class="st0" d="M-3859.3,36.2V19.7c0-0.4-0.1-0.9-0.3-1.3c-0.3-0.3-0.7-0.5-1.2-0.4c-0.8,0-1.5,0.6-1.8,1.3
		c-0.5,1.1-0.7,2.4-0.7,3.6v13.3h-6.4V12.9h6.4v3.8c0.3-1.2,1-2.3,1.9-3.1c1-0.8,2.2-1.2,3.4-1.1c0.6,0,1.3,0.1,1.9,0.3
		c0.6,0.2,1.2,0.5,1.6,1c0.5,0.5,0.9,1.1,1.1,1.7c0.3,0.8,0.4,1.6,0.4,2.5v18.3H-3859.3z"/>
	<path id="path-4" class="st0" d="M-3840.3,19.7c0-0.7,0-1.4-0.1-2.1c-0.1-0.4-0.2-0.9-0.4-1.2c-0.1-0.3-0.4-0.5-0.7-0.6
		c-0.3-0.1-0.6-0.1-0.9-0.1c-0.3,0-0.6,0-0.9,0.1c-0.3,0.1-0.5,0.3-0.7,0.6c-0.2,0.4-0.3,0.8-0.4,1.2c-0.1,0.7-0.1,1.4-0.1,2.1
		c0,0.7,0,1.4,0.1,2.1c0.1,0.4,0.2,0.9,0.4,1.2c0.1,0.3,0.4,0.5,0.7,0.6c0.3,0.1,0.6,0.1,0.9,0.1c0.3,0,0.6,0,0.9-0.1
		c0.3-0.1,0.5-0.3,0.7-0.6c0.2-0.4,0.3-0.8,0.4-1.2C-3840.3,21.1-3840.3,20.4-3840.3,19.7 M-3838.8,37.8c0-0.6-0.3-1.2-0.8-1.5
		c-0.9-0.4-1.9-0.6-2.8-0.5h-2.8c-0.3,0.3-0.6,0.6-0.8,0.9c-0.2,0.4-0.3,0.8-0.3,1.2c0,0.7,0.4,1.4,1.1,1.7c0.8,0.4,1.8,0.7,2.7,0.6
		c0.7,0,1.4,0,2-0.1c0.4-0.1,0.8-0.2,1.2-0.4c0.3-0.2,0.4-0.4,0.5-0.8C-3838.8,38.5-3838.8,38.2-3838.8,37.8 M-3833,36.6
		c0,2.5-0.8,4.3-2.3,5.5c-1.5,1.2-4,1.7-7.4,1.7c-1.1,0-2.2-0.1-3.2-0.2c-1-0.1-1.9-0.4-2.8-0.8c-0.8-0.4-1.4-0.9-1.9-1.6
		c-0.5-0.7-0.8-1.5-0.7-2.4c0-0.6,0.2-1.2,0.5-1.7c0.4-0.5,1-0.9,1.6-1.2l1.1-0.5l-0.8-0.4c-0.7-0.4-1.3-0.9-1.6-1.6
		c-0.3-0.7-0.5-1.5-0.4-2.2c0-1,0.3-1.9,0.9-2.6c0.6-0.7,1.2-1.3,1.9-1.7l0.7-0.5l-0.7-0.6c-0.3-0.3-0.6-0.6-0.9-1
		c-0.3-0.4-0.5-0.9-0.7-1.3c-0.2-0.5-0.4-1-0.5-1.5c-0.1-0.5-0.2-1-0.2-1.5c-0.1-2.2,0.6-4.3,2-5.9c1.3-1.4,3.3-2.1,5.9-2.1
		c0.6,0,1.3,0,1.9,0.1c0.5,0.1,0.9,0.2,1.4,0.4l0.6-4.2h5.2l-3.6,5.4c0.8,0.7,1.5,1.6,2,2.5c0.6,1.2,0.9,2.5,0.8,3.9
		c0.1,2-0.6,3.9-1.9,5.3c-1.4,1.4-3.4,2.1-5.3,2c-0.5,0-1,0-1.6,0c-0.5,0-1-0.1-1.4-0.2c-0.3,0.2-0.6,0.4-0.9,0.6
		c-0.3,0.2-0.5,0.5-0.4,0.9c0,0.6,0.2,0.9,0.6,1c0.4,0.1,0.9,0.1,1.3,0.1l3.9,0c1.9-0.1,3.7,0.4,5.2,1.6
		C-3833.6,32.8-3832.9,34.7-3833,36.6"/>
	<path id="path-5" class="st0" d="M-3825.9,11.8c0,1.3-0.2,2.6-0.8,3.8c-0.6,1.2-1.7,2-2.9,2.5c-0.4,0.2-0.7,0.3-1.1,0.4
		c-0.4,0.1-0.8,0.2-1.3,0.2l-0.5-2.2c0.8-0.3,1.6-0.7,2.3-1.2c0.5-0.4,0.8-0.9,1-1.6c0.1-0.6,0.1-1.3,0.1-1.9h-2.4V5h5.7V11.8z"/>
	<path id="path-6" class="st0" d="M-3808.1,29.1c0,1.1-0.1,2.2-0.5,3.2c-0.3,0.9-0.8,1.7-1.5,2.3c-0.8,0.7-1.7,1.1-2.7,1.4
		c-1.4,0.3-2.8,0.5-4.2,0.5c-2.9,0-4.9-0.5-6.2-1.5c-1.3-1.1-2-2.7-1.9-4.4c0-0.5,0-1,0.1-1.5c0.1-0.5,0.2-0.9,0.3-1.4l4.9,0.3
		c-0.1,0.5-0.2,1-0.2,1.5c0,0.7,0.2,1.4,0.6,2c0.5,0.5,1.2,0.8,1.9,0.7c0.4,0,0.8-0.1,1.2-0.3c0.3-0.2,0.5-0.4,0.7-0.6
		c0.2-0.2,0.3-0.5,0.3-0.8c0.1-0.2,0.1-0.5,0.1-0.8c0-0.6-0.2-1.1-0.5-1.5c-0.5-0.5-1.2-0.9-1.8-1.2l-2.5-1.2
		c-0.6-0.3-1.1-0.6-1.6-0.9c-0.6-0.4-1.1-0.8-1.6-1.3c-0.5-0.6-1-1.2-1.3-2c-0.4-0.9-0.5-1.8-0.5-2.8c0-1,0.2-2,0.6-2.9
		c0.4-0.8,1-1.6,1.8-2.2c0.8-0.6,1.7-1,2.6-1.3c1-0.3,2.1-0.5,3.1-0.4c1,0,2,0.1,3,0.3c0.9,0.2,1.7,0.6,2.4,1.1
		c0.7,0.5,1.2,1.1,1.6,1.8c0.4,0.8,0.6,1.7,0.6,2.6c0,0.4,0,0.8-0.1,1.1c-0.1,0.3-0.2,0.7-0.3,1l-4.8-0.1c0.1-0.2,0.1-0.5,0.2-0.7
		c0-0.3,0-0.6,0-0.9c0-0.6-0.2-1.1-0.6-1.5c-0.5-0.4-1-0.5-1.6-0.5c-0.6-0.1-1.1,0.2-1.5,0.6c-0.3,0.4-0.5,1-0.5,1.5
		c0,0.6,0.2,1.2,0.7,1.6c0.6,0.4,1.2,0.8,1.9,1.1l3.1,1.3c0.6,0.3,1.2,0.6,1.8,1c0.6,0.4,1.1,0.8,1.5,1.3c0.4,0.6,0.8,1.2,1,1.8
		C-3808.2,27.4-3808.1,28.3-3808.1,29.1"/>
	<path id="path-7" class="st0" d="M-3888.4,64.4c0-2.1,0-3.8-0.1-5.3c0-1.1-0.2-2.3-0.5-3.4c-0.1-0.7-0.5-1.3-1-1.8
		c-0.5-0.4-1.1-0.6-1.8-0.5h-1.5v20.3h1.6c0.5,0,1-0.1,1.5-0.3c0.5-0.3,0.8-0.8,1-1.3c0.3-0.9,0.5-1.8,0.6-2.8
		C-3888.4,67.6-3888.4,66-3888.4,64.4 M-3881.5,65.2c0,1.9-0.1,3.8-0.4,5.7c-0.2,1.6-0.7,3.1-1.5,4.5c-0.6,1.2-1.6,2.2-2.8,2.9
		c-1.3,0.7-2.8,1.1-4.3,1.1h-9.5V48.1h10c1.3,0,2.7,0.4,3.7,1.2c1.1,0.9,2,2.1,2.6,3.4c0.8,1.7,1.3,3.5,1.6,5.4
		C-3881.7,60.5-3881.5,62.8-3881.5,65.2"/>
	<path id="path-8" class="st0" d="M-3879.1,56h6.4v23.3h-6.4V56z M-3879.1,79.3V48.1h6.4V54h-6.4V79.3z"/>
	<path id="path-9" class="st0" d="M-3860,62.8c0-0.7,0-1.4-0.1-2.1c-0.1-0.4-0.2-0.9-0.4-1.2c-0.1-0.3-0.4-0.5-0.7-0.6
		c-0.3-0.1-0.6-0.1-0.9-0.1c-0.3,0-0.6,0-0.9,0.1c-0.3,0.1-0.5,0.3-0.7,0.6c-0.2,0.4-0.3,0.8-0.4,1.2c-0.1,0.7-0.1,1.4-0.1,2.1
		c0,0.7,0,1.4,0.1,2.1c0.1,0.4,0.2,0.9,0.4,1.2c0.1,0.3,0.4,0.5,0.7,0.6c0.3,0.1,0.6,0.1,0.9,0.1c0.3,0,0.6,0,0.9-0.1
		c0.3-0.1,0.5-0.3,0.7-0.6c0.2-0.4,0.3-0.8,0.4-1.2C-3860,64.2-3860,63.5-3860,62.8 M-3858.4,80.9c0-0.6-0.3-1.2-0.8-1.5
		c-0.9-0.4-1.9-0.6-2.8-0.5h-2.8c-0.3,0.3-0.6,0.6-0.8,0.9c-0.2,0.4-0.3,0.8-0.3,1.2c0,0.7,0.4,1.4,1.1,1.7c0.8,0.4,1.8,0.7,2.7,0.6
		c0.7,0,1.4,0,2-0.1c0.4-0.1,0.8-0.2,1.2-0.4c0.3-0.2,0.4-0.4,0.5-0.7C-3858.5,81.6-3858.4,81.3-3858.4,80.9 M-3852.7,79.7
		c0,2.5-0.8,4.3-2.3,5.5s-4,1.7-7.4,1.7c-1.1,0-2.2-0.1-3.2-0.2c-1-0.1-1.9-0.4-2.8-0.8c-0.8-0.4-1.4-0.9-1.9-1.6
		c-0.5-0.7-0.8-1.5-0.7-2.4c0-0.6,0.2-1.2,0.5-1.7c0.4-0.5,1-0.9,1.6-1.2l1.1-0.5l-0.8-0.4c-0.7-0.4-1.3-0.9-1.6-1.6
		c-0.3-0.7-0.5-1.5-0.4-2.2c0-1,0.3-1.9,0.9-2.6c0.6-0.7,1.2-1.3,1.9-1.7l0.7-0.5l-0.7-0.6c-0.3-0.3-0.6-0.6-0.9-1
		c-0.3-0.4-0.5-0.9-0.7-1.3c-0.2-0.5-0.4-1-0.5-1.5c-0.1-0.5-0.2-1-0.2-1.5c-0.1-2.2,0.6-4.3,2-5.9c1.3-1.4,3.3-2.1,5.9-2.1
		c0.6,0,1.3,0,1.9,0.1c0.5,0.1,0.9,0.2,1.4,0.4l0.6-4.2h5.2l-3.6,5.4c0.8,0.7,1.5,1.6,2,2.5c0.6,1.2,0.9,2.5,0.8,3.9
		c0.1,2-0.6,3.9-1.9,5.3c-1.4,1.4-3.4,2.1-5.3,2c-0.5,0-1,0-1.6,0c-0.5,0-1-0.1-1.4-0.2c-0.3,0.2-0.6,0.4-0.9,0.6
		c-0.3,0.2-0.5,0.5-0.4,0.9c0,0.6,0.2,0.9,0.6,1c0.4,0.1,0.9,0.1,1.3,0.1l3.9,0c1.9-0.1,3.7,0.4,5.2,1.6
		C-3853.2,75.9-3852.6,77.8-3852.7,79.7"/>
	<path id="path-10" class="st0" d="M-3851.3,56h6.4v23.3h-6.4V56z M-3851.3,79.3V48.1h6.4V54h-6.4V79.3z"/>
	<path id="path-11" class="st0" d="M-3828.1,78.3c-0.3,0.2-0.6,0.3-1,0.4c-0.5,0.2-1,0.3-1.5,0.4c-0.6,0.1-1.2,0.2-1.8,0.3
		c-0.6,0.1-1.3,0.1-1.9,0.1c-0.8,0-1.5-0.1-2.3-0.2c-0.6-0.1-1.2-0.4-1.7-0.8c-0.5-0.4-0.9-0.9-1.1-1.5c-0.3-0.7-0.4-1.5-0.4-2.3
		l0.1-14.4h-3.4V56h3.5l0.2-6.4h6.1V56h4.9v4.4h-4.9v11.8c0,0.4,0.1,0.8,0.3,1.1c0.2,0.3,0.4,0.5,0.7,0.6c0.3,0.1,0.6,0.2,0.9,0.3
		c0.3,0,0.7,0.1,1,0.1c0.4,0,0.9,0,1.3-0.1c0.4-0.1,0.7-0.2,1-0.3L-3828.1,78.3z"/>
	<path id="path-12" class="st0" d="M-3815.3,67.7c-0.3,0.2-0.6,0.3-1,0.4c-0.3,0.1-0.6,0.2-1,0.3c-0.5,0.1-1,0.3-1.4,0.5
		c-0.3,0.2-0.6,0.4-0.9,0.7c-0.2,0.3-0.4,0.6-0.4,1c-0.1,0.4-0.1,0.9-0.1,1.3c0,0.8,0.1,1.6,0.4,2.4c0.3,0.6,0.9,0.9,1.6,0.8
		c0.4,0,0.7-0.1,1.1-0.2c0.4-0.1,0.7-0.4,0.9-0.7c0.3-0.5,0.5-1,0.6-1.6c0.2-0.9,0.2-1.8,0.2-2.7V67.7z M-3806.9,78.6
		c-0.2,0.1-0.5,0.3-0.7,0.4c-0.3,0.2-0.7,0.3-1.1,0.4c-0.4,0.1-0.8,0.2-1.3,0.3c-0.4,0.1-0.8,0.1-1.3,0.1c-0.7,0-1.3-0.1-2-0.2
		c-0.4-0.1-0.8-0.3-1.2-0.6c-0.3-0.3-0.5-0.6-0.6-1c-0.1-0.4-0.3-0.8-0.4-1.2l-0.4,0.7c-0.4,0.6-0.9,1.2-1.6,1.5
		c-1,0.5-2,0.8-3.1,0.7c-1,0-2-0.2-2.9-0.6c-0.7-0.4-1.4-0.9-1.9-1.6c-0.5-0.7-0.9-1.4-1.1-2.3c-0.2-0.8-0.3-1.7-0.3-2.6
		c-0.1-1.7,0.4-3.3,1.4-4.7c1.1-1.3,2.7-2.1,4.4-2.4l2.4-0.5c0.5-0.1,1-0.2,1.5-0.4c0.3-0.1,0.6-0.3,0.9-0.6
		c0.2-0.2,0.4-0.5,0.4-0.9c0.1-0.4,0.1-0.8,0.1-1.2c0.1-0.8-0.1-1.7-0.7-2.3c-0.5-0.5-1.2-0.7-1.9-0.7c-0.7,0-1.4,0.2-2,0.7
		c-0.5,0.4-0.8,1.1-0.8,1.7c0,0.4,0,0.7,0.1,1.1c0.1,0.3,0.1,0.6,0.2,0.9l-5.4,0.1c-0.1-0.5-0.2-0.9-0.2-1.2
		c-0.1-0.4-0.1-0.9-0.1-1.3c0-0.9,0.2-1.9,0.6-2.7c0.4-0.7,1-1.4,1.8-1.8c0.8-0.5,1.7-0.8,2.6-1c1-0.2,2.1-0.3,3.2-0.3
		c1.4,0,2.8,0.1,4.1,0.4c1,0.2,1.9,0.6,2.7,1.1c0.6,0.4,1.2,1,1.5,1.6c0.3,0.7,0.5,1.4,0.5,2.1v13.6c0,0.4,0.1,0.8,0.4,1
		c0.3,0.2,0.7,0.4,1.1,0.3c0.2,0,0.4,0,0.6-0.1L-3806.9,78.6z"/>
	<path id="path-13" class="st0" d="M-3804.9,48.1h6.4v31.2h-6.4V48.1z"/>
	<path id="path-14" class="st0" d="M-3788.4,79.3V48.1h6.9v25.2h7.7v6L-3788.4,79.3z"/>
	<path id="path-15" class="st0" d="M-3760.4,67.7c-0.3,0.2-0.6,0.3-1,0.4c-0.3,0.1-0.6,0.2-1,0.3c-0.5,0.1-1,0.3-1.4,0.5
		c-0.3,0.2-0.6,0.4-0.9,0.7c-0.2,0.3-0.4,0.6-0.4,1c-0.1,0.4-0.1,0.9-0.1,1.3c0,0.8,0.1,1.6,0.4,2.4c0.3,0.6,0.9,0.9,1.6,0.8
		c0.4,0,0.7-0.1,1.1-0.2c0.4-0.1,0.7-0.4,0.9-0.7c0.3-0.5,0.5-1,0.6-1.6c0.2-0.9,0.2-1.8,0.2-2.7V67.7z M-3752,78.6
		c-0.2,0.1-0.5,0.3-0.7,0.4c-0.3,0.2-0.7,0.3-1.1,0.4c-0.4,0.1-0.8,0.2-1.3,0.3c-0.4,0.1-0.8,0.1-1.3,0.1c-0.7,0-1.3-0.1-2-0.2
		c-0.4-0.1-0.8-0.3-1.2-0.6c-0.3-0.3-0.5-0.6-0.6-1c-0.1-0.4-0.3-0.8-0.4-1.2l-0.4,0.7c-0.4,0.6-0.9,1.2-1.6,1.5
		c-1,0.5-2,0.8-3.1,0.7c-1,0-2-0.2-2.9-0.6c-0.7-0.4-1.4-0.9-1.9-1.6c-0.5-0.7-0.9-1.4-1.1-2.3c-0.2-0.8-0.3-1.7-0.3-2.6
		c-0.1-1.7,0.4-3.3,1.4-4.7c1.1-1.3,2.7-2.1,4.4-2.4l2.4-0.5c0.5-0.1,1-0.2,1.5-0.4c0.3-0.1,0.6-0.3,0.9-0.6
		c0.2-0.2,0.4-0.5,0.4-0.9c0.1-0.4,0.1-0.8,0.1-1.2c0.1-0.8-0.1-1.7-0.7-2.3c-0.5-0.5-1.2-0.7-1.9-0.7c-0.7,0-1.4,0.2-2,0.7
		c-0.5,0.4-0.8,1.1-0.8,1.7c0,0.4,0,0.7,0.1,1.1c0.1,0.3,0.1,0.6,0.2,0.9l-5.4,0.1c-0.1-0.5-0.2-0.9-0.2-1.2
		c-0.1-0.4-0.1-0.9-0.1-1.3c0-0.9,0.2-1.9,0.6-2.7c0.4-0.7,1-1.4,1.8-1.8c0.8-0.5,1.7-0.8,2.6-1c1-0.2,2.1-0.3,3.2-0.3
		c1.4,0,2.8,0.1,4.1,0.4c1,0.2,1.9,0.6,2.7,1.1c0.6,0.4,1.2,1,1.5,1.6c0.3,0.7,0.5,1.4,0.5,2.1v13.6c0,0.4,0.1,0.8,0.4,1
		c0.3,0.2,0.7,0.4,1.1,0.3c0.2,0,0.4,0,0.6-0.1L-3752,78.6z"/>
	<path id="path-16" class="st0" d="M-3739.2,67.7c0-1.2,0-2.2-0.1-3.1c-0.1-0.7-0.2-1.5-0.3-2.2c-0.1-0.5-0.3-1-0.6-1.4
		c-0.3-0.2-0.7-0.4-1.1-0.3c-0.8,0-1.4,0.5-1.8,1.6c-0.5,1.7-0.7,3.6-0.6,5.4c0,1.1,0,2.3,0.1,3.4c0.1,0.7,0.2,1.5,0.4,2.2
		c0.1,0.4,0.4,0.8,0.7,1.1c0.3,0.2,0.6,0.3,0.9,0.3c0.3,0,0.7-0.1,1-0.3c0.3-0.3,0.6-0.6,0.7-1c0.2-0.7,0.4-1.4,0.4-2.2
		C-3739.2,70.4-3739.2,69.2-3739.2,67.7 M-3732.7,67.2c0,1.9-0.1,3.9-0.4,5.8c-0.2,1.4-0.7,2.7-1.4,3.9c-0.6,0.9-1.4,1.7-2.4,2.2
		c-1.1,0.5-2.4,0.7-3.6,0.7c-0.7,0-1.4-0.1-2-0.4c-0.5-0.2-1-0.5-1.4-0.9c-0.4-0.4-0.7-0.8-1-1.2c-0.3-0.4-0.5-0.9-0.8-1.3l-1.4,3.3
		h-2.9V48.1h6.4v10.2c0.2-0.3,0.4-0.7,0.6-1c0.2-0.3,0.5-0.6,0.8-0.9c0.4-0.3,0.8-0.5,1.2-0.6c0.5-0.2,1.1-0.3,1.7-0.2
		c0.9,0,1.8,0.2,2.6,0.6c0.9,0.4,1.6,1.1,2.1,1.9c0.7,1.1,1.2,2.3,1.4,3.6C-3732.9,63.5-3732.7,65.3-3732.7,67.2"/>
</g>
</svg>
