<?xml version="1.0" encoding="utf-8"?>
<!-- Generator: Adobe Illustrator 20.0.0, SVG Export Plug-In . SVG Version: 6.00 Build 0)  -->
<svg version="1.1" id="Layer_1" xmlns="http://www.w3.org/2000/svg" xmlns:xlink="http://www.w3.org/1999/xlink" x="0px" y="0px"
	 viewBox="0 0 158.7 22.9" style="enable-background:new 0 0 158.7 22.9;" xml:space="preserve">
<style type="text/css">
	.st0{fill:#5A6469;}
</style>
<g>
	<path id="path" class="st0" d="M6.8,0L4.1,6.7V0H0v18.4h4.1v-7.6l2.9,7.6h4.6L7.4,8.2L11,0H6.8z"/>
	<path id="path-3" class="st0" d="M24.1,18.4V8.7c0-0.3-0.1-0.5-0.2-0.7c-0.2-0.2-0.4-0.3-0.7-0.3c-0.5,0-0.9,0.3-1.1,0.8
		c-0.3,0.7-0.4,1.4-0.4,2.1v7.8h-3.8V4.6h3.8v2.2c0.2-0.7,0.6-1.3,1.1-1.8c0.6-0.5,1.3-0.7,2-0.7c0.4,0,0.8,0.1,1.1,0.2
		c0.4,0.1,0.7,0.3,1,0.6c0.3,0.3,0.5,0.6,0.7,1c0.2,0.5,0.3,1,0.3,1.5v10.8L24.1,18.4z"/>
	<path id="path-4" class="st0" d="M35.3,8.6c0-0.4,0-0.8-0.1-1.2c0-0.3-0.1-0.5-0.2-0.7c-0.1-0.2-0.2-0.3-0.4-0.3
		c-0.2-0.1-0.4-0.1-0.6-0.1c-0.2,0-0.4,0-0.6,0.1c-0.2,0.1-0.3,0.2-0.4,0.3c-0.1,0.2-0.2,0.5-0.2,0.7c-0.1,0.4-0.1,0.8-0.1,1.2
		c0,0.4,0,0.8,0.1,1.2c0,0.3,0.1,0.5,0.2,0.7c0.1,0.2,0.2,0.3,0.4,0.3C33.6,11,33.8,11,34,11c0.2,0,0.4,0,0.6-0.1
		c0.2-0.1,0.3-0.2,0.4-0.3c0.1-0.2,0.2-0.5,0.2-0.7C35.2,9.5,35.3,9.1,35.3,8.6 M36.2,19.4c0-0.4-0.2-0.7-0.5-0.9
		c-0.5-0.3-1.1-0.4-1.7-0.3h-1.7c-0.2,0.2-0.3,0.3-0.5,0.6c-0.1,0.2-0.2,0.5-0.2,0.7c0,0.4,0.3,0.8,0.6,1c0.5,0.3,1,0.4,1.6,0.4
		c0.4,0,0.8,0,1.2-0.1c0.3,0,0.5-0.1,0.7-0.3c0.1-0.1,0.3-0.3,0.3-0.4C36.1,19.8,36.2,19.6,36.2,19.4 M39.5,18.6
		c0.1,1.2-0.4,2.4-1.3,3.2c-1.3,0.8-2.8,1.2-4.4,1c-0.6,0-1.3,0-1.9-0.1c-0.6-0.1-1.1-0.2-1.6-0.5c-0.4-0.2-0.8-0.5-1.1-0.9
		c-0.3-0.4-0.4-0.9-0.4-1.4c0-0.4,0.1-0.7,0.3-1c0.3-0.3,0.6-0.5,0.9-0.7l0.6-0.3l-0.5-0.3c-0.4-0.2-0.7-0.6-1-1
		c-0.2-0.4-0.3-0.9-0.3-1.3c0-0.6,0.2-1.1,0.5-1.6c0.3-0.4,0.7-0.7,1.1-1l0.4-0.3l-0.4-0.4c-0.2-0.2-0.4-0.4-0.5-0.6
		c-0.2-0.2-0.3-0.5-0.4-0.8c-0.1-0.3-0.2-0.6-0.3-0.9c-0.1-0.3-0.1-0.6-0.1-0.9c-0.1-1.3,0.3-2.5,1.2-3.5c0.9-0.9,2.2-1.3,3.5-1.2
		c0.4,0,0.7,0,1.1,0.1c0.3,0,0.5,0.1,0.8,0.2L36.2,2h3.1l-2.1,3.2c0.5,0.4,0.9,0.9,1.2,1.5c0.4,0.7,0.5,1.5,0.5,2.3
		c0.1,1.2-0.4,2.3-1.1,3.1c-0.8,0.8-2,1.2-3.2,1.2c-0.3,0-0.6,0-0.9,0c-0.3,0-0.6,0-0.9-0.1c-0.2,0.1-0.4,0.2-0.6,0.3
		c-0.2,0.1-0.3,0.3-0.3,0.5c0,0.3,0.1,0.5,0.4,0.6c0.3,0.1,0.5,0.1,0.8,0.1l2.3,0c1.1-0.1,2.2,0.3,3.1,1
		C39.2,16.4,39.6,17.5,39.5,18.6"/>
	<path id="path-5" class="st0" d="M43.8,4c0,0.8-0.1,1.6-0.5,2.3c-0.4,0.7-1,1.2-1.7,1.5c-0.2,0.1-0.4,0.2-0.7,0.2
		c-0.2,0.1-0.5,0.1-0.7,0.1l-0.3-1.3c0.5-0.1,0.9-0.4,1.3-0.7c0.3-0.2,0.5-0.6,0.6-0.9c0.1-0.4,0.1-0.8,0-1.1h-1.4V0h3.4L43.8,4z"/>
	<path id="path-6" class="st0" d="M54.3,14.3c0,0.6-0.1,1.3-0.3,1.9c-0.2,0.5-0.5,1-0.9,1.4c-0.5,0.4-1,0.7-1.6,0.8
		c-0.8,0.2-1.6,0.3-2.5,0.3c-1.3,0.1-2.6-0.2-3.7-0.9c-0.8-0.6-1.2-1.6-1.1-2.6c0-0.3,0-0.6,0.1-0.9c0.1-0.3,0.1-0.5,0.2-0.8
		l2.9,0.2c-0.1,0.3-0.1,0.6-0.1,0.9c0,0.4,0.1,0.8,0.3,1.2c0.3,0.3,0.7,0.4,1.1,0.4c0.2,0,0.5,0,0.7-0.2c0.2-0.1,0.3-0.2,0.4-0.4
		c0.1-0.1,0.2-0.3,0.2-0.5c0-0.1,0.1-0.3,0.1-0.4c0-0.3-0.1-0.7-0.3-0.9c-0.3-0.3-0.7-0.5-1.1-0.7l-1.5-0.7c-0.3-0.2-0.7-0.3-1-0.5
		c-0.4-0.2-0.7-0.5-1-0.8c-0.3-0.3-0.6-0.7-0.7-1.2c-0.2-0.5-0.3-1.1-0.3-1.6c0-0.6,0.1-1.2,0.4-1.7c0.3-0.5,0.6-0.9,1.1-1.3
		c0.5-0.4,1-0.6,1.5-0.8c0.6-0.2,1.2-0.3,1.9-0.3c0.6,0,1.2,0.1,1.8,0.2c0.5,0.1,1,0.3,1.4,0.6c0.4,0.3,0.7,0.6,0.9,1.1
		c0.2,0.5,0.4,1,0.3,1.5c0,0.2,0,0.4,0,0.7c0,0.2-0.1,0.4-0.2,0.6l-2.9,0c0-0.1,0.1-0.3,0.1-0.4c0-0.2,0-0.4,0-0.5
		c0-0.3-0.1-0.7-0.3-0.9c-0.3-0.2-0.6-0.3-0.9-0.3c-0.3,0-0.7,0.1-0.9,0.3c-0.2,0.3-0.3,0.6-0.3,0.9c0,0.4,0.1,0.7,0.4,0.9
		c0.3,0.3,0.7,0.5,1.1,0.6l1.8,0.8c0.4,0.2,0.7,0.4,1.1,0.6c0.3,0.2,0.6,0.5,0.9,0.8c0.3,0.3,0.5,0.7,0.6,1.1
		C54.2,13.2,54.3,13.7,54.3,14.3"/>
	<path id="path-7" class="st0" d="M66.7,9.6c0-1.2,0-2.3-0.1-3.1c0-0.7-0.1-1.4-0.3-2c-0.1-0.4-0.3-0.8-0.6-1.1
		c-0.3-0.2-0.7-0.3-1-0.3h-0.9v12h0.9c0.3,0,0.6-0.1,0.9-0.2c0.3-0.2,0.5-0.5,0.6-0.8c0.2-0.5,0.3-1.1,0.4-1.7
		C66.7,11.5,66.7,10.6,66.7,9.6 M70.8,10.1c0,1.1-0.1,2.2-0.3,3.3c-0.1,0.9-0.4,1.8-0.9,2.6c-0.4,0.7-0.9,1.3-1.6,1.7
		c-0.8,0.4-1.7,0.7-2.6,0.6h-5.6V0h5.9c0.8,0,1.6,0.2,2.2,0.7c0.7,0.5,1.2,1.2,1.6,2c0.5,1,0.8,2.1,0.9,3.2
		C70.7,7.3,70.8,8.7,70.8,10.1"/>
	<path id="path-9" class="st0" d="M83.5,8.6c0-0.4,0-0.8-0.1-1.2c0-0.3-0.1-0.5-0.2-0.7c-0.1-0.2-0.2-0.3-0.4-0.3
		c-0.2-0.1-0.4-0.1-0.6-0.1c-0.2,0-0.4,0-0.6,0.1c-0.2,0.1-0.3,0.2-0.4,0.3c-0.1,0.2-0.2,0.5-0.2,0.7C81,7.8,80.9,8.2,81,8.6
		c0,0.4,0,0.8,0.1,1.2c0,0.3,0.1,0.5,0.2,0.7c0.1,0.2,0.2,0.3,0.4,0.3C81.8,11,82,11,82.2,11c0.2,0,0.4,0,0.6-0.1
		c0.2-0.1,0.3-0.2,0.4-0.3c0.1-0.2,0.2-0.5,0.2-0.7C83.5,9.5,83.5,9.1,83.5,8.6 M84.4,19.4c0-0.4-0.2-0.7-0.5-0.9
		c-0.5-0.3-1.1-0.4-1.7-0.3h-1.7c-0.2,0.2-0.3,0.3-0.5,0.6c-0.1,0.2-0.2,0.5-0.2,0.7c0,0.4,0.3,0.8,0.6,1c0.5,0.3,1,0.4,1.6,0.4
		c0.4,0,0.8,0,1.2-0.1c0.3,0,0.5-0.1,0.7-0.3c0.1-0.1,0.3-0.3,0.3-0.4C84.4,19.8,84.4,19.6,84.4,19.4 M87.8,18.6
		c0.1,1.2-0.4,2.4-1.3,3.2c-1.3,0.8-2.8,1.2-4.4,1c-0.6,0-1.3,0-1.9-0.1c-0.6-0.1-1.1-0.2-1.6-0.5c-0.4-0.2-0.8-0.5-1.1-0.9
		c-0.3-0.4-0.4-0.9-0.4-1.4c0-0.4,0.1-0.7,0.3-1c0.3-0.3,0.6-0.5,0.9-0.7l0.6-0.3l-0.5-0.3c-0.4-0.2-0.7-0.6-1-1
		c-0.2-0.4-0.3-0.9-0.3-1.3c0-0.6,0.2-1.1,0.5-1.6c0.3-0.4,0.7-0.7,1.1-1l0.4-0.3l-0.4-0.4c-0.2-0.2-0.4-0.4-0.5-0.6
		c-0.2-0.2-0.3-0.5-0.4-0.8c-0.1-0.3-0.2-0.6-0.3-0.9c-0.1-0.3-0.1-0.6-0.1-0.9c-0.1-1.3,0.3-2.5,1.2-3.5c0.9-0.9,2.2-1.3,3.5-1.2
		c0.4,0,0.7,0,1.1,0.1c0.3,0,0.5,0.1,0.8,0.2L84.4,2h3.1l-2.1,3.2c0.5,0.4,0.9,0.9,1.2,1.5C86.9,7.4,87.1,8.2,87,9
		c0.1,1.2-0.4,2.3-1.1,3.1c-0.8,0.8-2,1.2-3.2,1.2c-0.3,0-0.6,0-0.9,0c-0.3,0-0.6,0-0.9-0.1c-0.2,0.1-0.4,0.2-0.6,0.3
		c-0.2,0.1-0.3,0.3-0.3,0.5c0,0.3,0.1,0.5,0.4,0.6c0.3,0.1,0.5,0.1,0.8,0.1l2.3,0c1.1-0.1,2.2,0.3,3.1,1
		C87.5,16.4,87.9,17.5,87.8,18.6"/>
	<path id="path-11" class="st0" d="M102.3,17.8c-0.2,0.1-0.4,0.2-0.6,0.3c-0.3,0.1-0.6,0.2-0.9,0.3c-0.4,0.1-0.7,0.1-1.1,0.2
		c-0.4,0-0.7,0.1-1.1,0.1c-0.5,0-0.9,0-1.3-0.1c-0.4-0.1-0.7-0.2-1-0.5c-0.3-0.2-0.5-0.5-0.6-0.9c-0.2-0.4-0.2-0.9-0.2-1.4l0-8.5h-2
		V4.6h2.1l0.1-3.8h3.6v3.8h2.9v2.6h-2.9v7c0,0.2,0,0.5,0.2,0.6c0.1,0.2,0.2,0.3,0.4,0.4c0.2,0.1,0.4,0.1,0.6,0.2c0.2,0,0.4,0,0.6,0
		c0.3,0,0.5,0,0.8-0.1c0.2-0.1,0.4-0.1,0.6-0.2L102.3,17.8z"/>
	<path id="path-12" class="st0" d="M109.9,11.6c-0.2,0.1-0.4,0.2-0.6,0.3c-0.2,0.1-0.4,0.1-0.6,0.2c-0.3,0.1-0.6,0.2-0.8,0.3
		c-0.2,0.1-0.4,0.2-0.5,0.4c-0.1,0.2-0.2,0.4-0.3,0.6c-0.1,0.3-0.1,0.5-0.1,0.8c0,0.5,0.1,1,0.3,1.4c0.2,0.3,0.6,0.5,0.9,0.5
		c0.2,0,0.4,0,0.6-0.1c0.2-0.1,0.4-0.2,0.5-0.4c0.2-0.3,0.3-0.6,0.3-0.9c0.1-0.5,0.1-1.1,0.1-1.6L109.9,11.6z M114.9,18
		c-0.1,0.1-0.3,0.2-0.4,0.2c-0.2,0.1-0.4,0.2-0.6,0.2c-0.2,0.1-0.5,0.1-0.7,0.2c-0.2,0-0.5,0.1-0.8,0.1c-0.4,0-0.8,0-1.2-0.1
		c-0.3-0.1-0.5-0.2-0.7-0.4c-0.2-0.2-0.3-0.3-0.4-0.6c-0.1-0.2-0.2-0.5-0.2-0.7l-0.2,0.4c-0.2,0.4-0.5,0.7-0.9,0.9
		c-0.6,0.3-1.2,0.5-1.8,0.4c-0.6,0-1.2-0.1-1.7-0.4c-0.4-0.2-0.8-0.5-1.1-0.9c-0.3-0.4-0.5-0.9-0.6-1.3c-0.1-0.5-0.2-1-0.2-1.5
		c-0.1-1,0.2-2,0.8-2.8c0.7-0.8,1.6-1.3,2.6-1.4l1.4-0.3c0.3-0.1,0.6-0.1,0.9-0.3c0.2-0.1,0.4-0.2,0.5-0.3c0.1-0.1,0.2-0.3,0.3-0.5
		c0.1-0.2,0.1-0.5,0.1-0.7c0-0.5-0.1-1-0.4-1.4c-0.3-0.3-0.7-0.4-1.1-0.4c-0.4,0-0.8,0.1-1.2,0.4c-0.3,0.2-0.5,0.6-0.5,1
		c0,0.2,0,0.4,0,0.6c0,0.2,0.1,0.4,0.1,0.6l-3.2,0.1c-0.1-0.3-0.1-0.5-0.1-0.7c0-0.3-0.1-0.5,0-0.8c0-0.6,0.1-1.1,0.4-1.6
		c0.3-0.4,0.6-0.8,1-1.1c0.5-0.3,1-0.5,1.5-0.6c0.6-0.1,1.2-0.2,1.9-0.2c0.8,0,1.6,0.1,2.4,0.2c0.6,0.1,1.1,0.3,1.6,0.6
		c0.4,0.2,0.7,0.6,0.9,1c0.2,0.4,0.3,0.8,0.3,1.3v8c0,0.2,0.1,0.4,0.3,0.6c0.2,0.1,0.4,0.2,0.6,0.2c0.1,0,0.2,0,0.3-0.1L114.9,18z"
		/>
	<path id="path-13" class="st0" d="M116,0h3.8v18.4H116V0z"/>
	<path id="path-14" class="st0" d="M125.7,18.4V0h4.1v14.9h4.6v3.5L125.7,18.4z"/>
	<path id="path-15" class="st0" d="M142.3,11.6c-0.2,0.1-0.4,0.2-0.6,0.3c-0.2,0.1-0.4,0.1-0.6,0.2c-0.3,0.1-0.6,0.2-0.8,0.3
		c-0.2,0.1-0.4,0.2-0.5,0.4c-0.1,0.2-0.2,0.4-0.3,0.6c-0.1,0.3-0.1,0.5-0.1,0.8c0,0.5,0.1,1,0.3,1.4c0.2,0.3,0.6,0.5,0.9,0.5
		c0.2,0,0.4,0,0.6-0.1c0.2-0.1,0.4-0.2,0.5-0.4c0.2-0.3,0.3-0.6,0.3-0.9c0.1-0.5,0.1-1.1,0.1-1.6L142.3,11.6z M147.2,18
		c-0.1,0.1-0.3,0.2-0.4,0.2c-0.2,0.1-0.4,0.2-0.6,0.2c-0.2,0.1-0.5,0.1-0.7,0.2c-0.2,0-0.5,0.1-0.8,0.1c-0.4,0-0.8,0-1.2-0.1
		c-0.3-0.1-0.5-0.2-0.7-0.4c-0.2-0.2-0.3-0.3-0.4-0.6c-0.1-0.2-0.2-0.5-0.2-0.7l-0.2,0.4c-0.2,0.4-0.5,0.7-0.9,0.9
		c-0.6,0.3-1.2,0.5-1.8,0.4c-0.6,0-1.2-0.1-1.7-0.4c-0.4-0.2-0.8-0.5-1.1-0.9c-0.3-0.4-0.5-0.9-0.6-1.3c-0.1-0.5-0.2-1-0.2-1.5
		c-0.1-1,0.2-2,0.8-2.8c0.7-0.8,1.6-1.3,2.6-1.4l1.4-0.3c0.3-0.1,0.6-0.1,0.9-0.3c0.2-0.1,0.4-0.2,0.5-0.3c0.1-0.1,0.2-0.3,0.3-0.5
		c0.1-0.2,0.1-0.5,0.1-0.7c0-0.5-0.1-1-0.4-1.4c-0.3-0.3-0.7-0.4-1.1-0.4c-0.4,0-0.8,0.1-1.2,0.4c-0.3,0.2-0.5,0.6-0.5,1
		c0,0.2,0,0.4,0,0.6c0,0.2,0.1,0.4,0.1,0.6l-3.2,0.1c-0.1-0.3-0.1-0.5-0.1-0.7c0-0.3-0.1-0.5,0-0.8c0-0.6,0.1-1.1,0.4-1.6
		c0.3-0.4,0.6-0.8,1-1.1c0.5-0.3,1-0.5,1.5-0.6c0.6-0.1,1.2-0.2,1.9-0.2c0.8,0,1.6,0.1,2.4,0.2c0.6,0.1,1.1,0.3,1.6,0.6
		c0.4,0.2,0.7,0.6,0.9,1c0.2,0.4,0.3,0.8,0.3,1.3v8c0,0.2,0.1,0.4,0.3,0.6c0.2,0.1,0.4,0.2,0.6,0.2c0.1,0,0.2,0,0.3-0.1V18z"/>
	<path id="path-16" class="st0" d="M154.8,11.6c0-0.7,0-1.3-0.1-1.8c0-0.4-0.1-0.9-0.2-1.3c0-0.3-0.2-0.6-0.4-0.8
		c-0.2-0.1-0.4-0.2-0.6-0.2c-0.5,0-0.8,0.3-1.1,0.9c-0.3,1-0.4,2.1-0.3,3.2c0,0.7,0,1.3,0.1,2c0,0.4,0.1,0.9,0.3,1.3
		c0.1,0.3,0.2,0.5,0.4,0.7c0.2,0.1,0.4,0.2,0.6,0.2c0.2,0,0.4,0,0.6-0.2c0.2-0.2,0.4-0.4,0.4-0.6c0.1-0.4,0.2-0.8,0.3-1.3
		C154.8,13.1,154.8,12.4,154.8,11.6 M158.7,11.3c0,1.1-0.1,2.3-0.2,3.4c-0.1,0.8-0.4,1.6-0.8,2.3c-0.3,0.6-0.8,1-1.4,1.3
		c-0.7,0.3-1.4,0.4-2.1,0.4c-0.4,0-0.8-0.1-1.2-0.2c-0.3-0.1-0.6-0.3-0.9-0.5c-0.2-0.2-0.4-0.4-0.6-0.7c-0.2-0.3-0.3-0.5-0.4-0.7
		l-0.8,2h-1.7V0h3.8v6c0.1-0.2,0.2-0.4,0.3-0.6c0.1-0.2,0.3-0.4,0.5-0.5c0.2-0.2,0.4-0.3,0.7-0.4c0.3-0.1,0.6-0.2,1-0.1
		c0.5,0,1.1,0.1,1.6,0.3c0.5,0.3,0.9,0.7,1.2,1.1c0.4,0.7,0.7,1.4,0.8,2.1C158.6,9.1,158.7,10.2,158.7,11.3"/>
	<path id="path-2" class="st0" d="M12.3,3.4h3.8V0h-3.8V3.4z M12.3,18.4h3.8V4.6h-3.8"/>
	<path id="path-2_1_" class="st0" d="M72.2,3.4H76V0h-3.8V3.4z M72.2,18.4H76V4.6h-3.8"/>
	<path id="path-2_2_" class="st0" d="M88.6,3.4h3.8V0h-3.8V3.4z M88.6,18.4h3.8V4.6h-3.8"/>
</g>
</svg>
