<?xml version="1.0" encoding="utf-8"?>
<!-- Generator: Adobe Illustrator 20.0.0, SVG Export Plug-In . SVG Version: 6.00 Build 0)  -->
<svg version="1.1" id="Layer_1" xmlns="http://www.w3.org/2000/svg" xmlns:xlink="http://www.w3.org/1999/xlink" x="0px" y="0px"
	 viewBox="0 0 500 390" style="enable-background:new 0 0 500 390;" xml:space="preserve">
<style type="text/css">
	.st0{fill:#E2271D;}
	.st1{fill:#FFFFFF;}
</style>
<g id="Layer_1_1_">
	<rect class="st0" width="500" height="390.6"/>
	<g>
		<g>
			<path class="st1" d="M424,174.7c5.6-1.8,10.9-4.9,10.9-10c0-2.7-1.2-3.8-3.9-3.8c-3.1,0-6.4,2.4-8.3,4.3
				c-3.1,3.1-6.4,6.9-8.9,11.7C415.8,176.9,420.1,175.9,424,174.7 M429.5,191.8c-3.9,5.1-10,9.8-17.6,9.8c-5.8,0-9.2-4.2-9.2-9.5
				c0-16.5,18.2-33.9,30.4-33.9c4.1,0,7.2,1.6,7.2,6c0,6.5-5.7,10-15.8,13c-3,0.8-9.1,2.2-12.2,2.9c-1.4,2.2-3.2,6.6-3.2,10.1
				c0,4.7,2.4,7.5,6.6,7.5c5,0,9.7-3.9,12.3-6.9C428.9,189.9,430.1,191,429.5,191.8 M434.3,78.7c0.5,0,1-0.3,0.8-0.9l-1.8-12.4
				c-0.2-0.8-0.6-1.1-1-1.1c-0.3,0-0.6,0.2-0.9,0.7c-0.6,1.1-1.4,2-3,2c-2.8,0-5.3-2-11.9-2c-8.6,0-19.9,3.7-19.9,16.1
				c0,12.4,10,16.5,18.5,19.6c9,3.3,16.2,5.8,16.2,15.2c0,10.5-7.4,13.9-14.4,13.9c-7.7,0-16.9-3.7-20.1-15.9
				c-0.3-1-0.6-1.3-1.4-1.3c-0.7,0-1.2,0.5-1.2,1.6V130c0,0.9,0.6,1.4,1.1,1.4c0.4,0,0.8-0.3,1.1-0.7c0.6-0.9,1.4-1.8,3.1-1.8
				c3.5,0,7.6,4.2,17.7,4.2c8.8,0,23.8-2.8,23.8-20.2c0-6.9-2.9-15.8-19.6-20.5c-11.9-3.3-15.7-8.3-15.7-14.4
				c0-5.3,3.1-10.3,11.7-10.3c4.2,0,11.1,1.2,15.8,10.2C433.6,78.6,433.9,78.7,434.3,78.7 M383.3,75.6c-2.4,0-5.2-1.5-5.2-5.3
				c0-4.1,3.3-5.4,5.8-5.4c3.5,0,6.4,2.5,6.4,6.8c0,4.8-3.6,10.5-10,10.5c-0.6,0-0.9-0.5-0.9-0.8c0-0.5,0.3-0.7,0.6-0.8
				c4.3-0.8,6-3.6,6.1-5.4C385.8,75.4,384.5,75.6,383.3,75.6 M394.4,163.7c0,2.7-1,6.3-3.3,10.1c-4.3,7-7.7,8.4-10.7,8.4
				c-2.5,0-3.6-2-3.6-5c0-2.6,1.1-5.9,3-8.9c3-4.7,7.1-8.6,10.8-8.6C393.1,159.8,394.4,161,394.4,163.7 M374.2,218.5
				c-10.2,0-13.3-5.9-13.3-8.8c0-2.8,1.1-4.5,3.9-6.5c1.9-1.4,4.8-2.8,7-3.6c2.5,1.1,6.3,3.3,7.5,4.4c5.5,3.9,6.6,6.1,6.6,8
				C385.9,217.3,378.1,218.5,374.2,218.5 M406.4,162.1c1.1,0,2.1-0.6,2.1-2.5c0-1.7-1.6-2.2-3-2.2c-1.7,0-3.8,0.5-6,1.9
				c-0.5,0.5-1.9,1.1-2.8,0.6c-1.8-1.2-3.3-2-7.5-2c-4.1,0-10.2,2.5-14.1,7.7c-2.8,3.9-3.3,6.6-3.3,9.4c0,2.8,1.1,4.8,1.9,5.9
				c0.2,0.3,0.3,0.5,0.3,0.7c0,0.6-0.8,1.1-2.2,1.5c-2.5,0.8-6.6,3.2-6.6,7.5c0,2.8,2.2,5.4,4.7,7.1c0,0-5.1,1.4-9.1,3.6
				c-3.1,1.8-6.6,4.4-6.6,8.3c0,4.4,3.8,11.6,19.4,11.6c9.1,0,14.8-3.3,17.1-5.8c1.7-1.9,1.9-4.1,1.9-5.5c0-5-5.5-9.7-11.6-13
				c-3.9-2.2-9.6-4.9-9.6-8.9c0-1,0.3-2.1,1.4-2.8c0.7-0.6,1.9-0.8,3.2-0.8c1.8,0,4,0.6,5.5,0.6c5,0,11.7-1.7,15.8-10.5
				c1.1-2.5,1.6-5,1.6-7.1c0-2.8-0.5-3.4-0.5-4.7c0-1.1,1.1-1.8,3.2-1.8C404.6,160.9,404.6,162.1,406.4,162.1 M349.4,174.7
				c5.7-1.8,11-4.9,11-10c0-2.7-1.3-3.8-3.9-3.8c-3.2,0-6.4,2.4-8.3,4.3c-3.2,3.1-6.4,6.9-9,11.7
				C341.3,176.9,345.5,175.9,349.4,174.7 M354.9,191.8c-3.9,5.1-10,9.8-17.5,9.8c-5.8,0-9.3-4.2-9.3-9.5c0-16.5,18.2-33.9,30.4-33.9
				c4.1,0,7.2,1.6,7.2,6c0,6.5-5.6,10-15.8,13c-2.9,0.8-9.1,2.2-12.2,2.9c-1.4,2.2-3.1,6.6-3.1,10.1c0,4.7,2.3,7.5,6.6,7.5
				c5,0,9.7-3.9,12.3-6.9C354.4,189.9,355.7,191,354.9,191.8 M328,145.8c0,0.3-0.1,0.8-0.4,1.4c-7.5,16.2-14.8,32.3-22,48.6
				c-0.4,0.8-1.1,2.5-1.1,3.6c0,1.4,1,2.6,2.5,2.6c0.7,0,1.7-0.3,2.3-0.6c4.1-1.7,8.3-6.1,10.8-9.9c0.6-0.8-0.5-1.6-1.1-1
				c-1,0.9-3.9,4.8-6.9,6.4c-0.6,0.3-1.1,0.3-0.7-0.8l23-51.1c0.4-0.9,0.6-1.5,0.6-2c0-0.6-0.5-0.9-1.1-0.9c-1.1,0-2.4,0.3-4.1,0.5
				c-1.4,0.1-3.8,0.3-5.9,0.5c-0.6,0-0.8,0.6-0.8,0.9c0,0.6,0.5,0.8,1,0.8c1.1,0,2.2,0,3.4,0.3C328,145.1,328,145.4,328,145.8
				 M368.5,110.5c0-5.6,4.1-6.2,7.7-6.5c1.4-0.2,1.7-2.4-0.3-2.4H348c-1.9,0-1.9,2.5,0,2.7c5.5,0.4,10,1.4,10,6.7v10
				c0,2.2-1.1,3.8-2.3,4.7c-4.9,4.1-11.1,4.3-14.6,4.3c-17.7,0-25.6-15.3-25.6-30.5c0-12.4,6.3-31.8,26.7-31.8
				c18.3,0,25,11.9,27.2,16.4c0.7,1.4,2.5,1.1,2.5,0V69.6c0-1.4-2-1.7-2.5,0c-0.4,1.7-1.5,2.8-2.9,2.8c-1.1,0-2.4-0.8-2.9-1.2
				c-5.5-3.5-10.8-6.3-21.3-6.3c-17,0-37.9,8.5-37.9,34.3c0,26,19.6,34,36.8,34c16.9,0,25.7-8.6,27.4-9.7L368.5,110.5
				C368.5,110.5,368.5,110.5,368.5,110.5z M307.5,145.8c0,0.3-0.1,0.8-0.4,1.4c-7.5,16.2-14.8,32.3-22,48.6
				c-0.4,0.8-1.1,2.5-1.1,3.6c0,1.4,1,2.6,2.5,2.6c0.7,0,1.8-0.3,2.3-0.6c4.1-1.7,8.3-6.1,10.8-9.9c0.6-0.8-0.5-1.6-1.1-1
				c-1,0.9-3.9,4.8-6.9,6.4c-0.6,0.3-1.1,0.3-0.7-0.8l23-51.1c0.4-0.9,0.6-1.5,0.6-2c0-0.6-0.5-0.9-1.1-0.9c-1.1,0-2.4,0.3-4.1,0.5
				c-1.4,0.1-3.8,0.3-5.9,0.5c-0.6,0-0.8,0.6-0.8,0.9c0,0.6,0.5,0.8,1,0.8c1.1,0,2.2,0,3.4,0.3C307.4,145.1,307.5,145.4,307.5,145.8
				 M274.7,159.6c-8.7,0-21.3,20.7-21.3,33.4c0,3.3,1.5,5.8,5,5.8c8.6,0,21.4-21.2,21.4-32.3C279.8,163.1,278.8,159.6,274.7,159.6
				 M272.8,157c8.8,0,10.5,7.7,10.5,14.9c0,11.4-10.5,29.7-23.2,29.7c-8,0-11.1-6.5-11.1-13.1C249.1,172.6,260.4,157,272.8,157
				 M228.4,65.1c-1.9,0-1.9,1.9-0.8,2.2c2.1,0.5,6.5,0.8,6.5,6.6c0.1,13.7,0.1,31.7-0.5,46.4c-0.1,5.3-1.7,9.7-6.2,10.2
				c-1.7,0.1-1.7,2-0.6,2h19.9c1.1,0,1.5-1.7,0.1-2c-3-0.6-8-0.6-8.4-10.2c-0.5-9.4-0.7-45-0.7-45l49.9,55.6h4.1c0,0,0-52,0.3-55.9
				c0.3-4.6,1.8-7.1,6.8-7.5c2.5-0.2,2-2.4,0.4-2.4h-20.3c-2.4,0-1.8,2.2-0.7,2.2c2.2,0.3,9.1,1.1,9.4,7.7
				c0.3,9.7,0.7,39.8,0.7,39.8l-44.4-49.8H228.4z M246.3,162.5c0.5,0,0.9-0.3,1.1-0.8l4.4-14.1c0.3-0.8-0.1-1.4-0.8-1.4
				c-0.3,0-0.6,0.1-0.9,0.4c-0.8,0.8-1.8,1.7-2.7,1.7c-0.5,0-0.8-0.3-1.3-0.6c-4-4.9-10.3-5.6-13.4-5.6c-14.1,0-26.3,9.2-33.4,20.6
				c-4.3,6.7-6.5,14.1-6.5,21.4c0,11.6,8,18.2,18.5,18.2c4.7,0,8.3-0.6,14.6-3.2c1.4-0.6,3-1.2,3.9-1.2c1.6,0,1.7,2.3,1.8,4.4
				c0,0.8,0.6,1.1,1.1,1.1c0.4,0,0.8-0.2,1.1-0.8l5.9-16.9c0.5-1.4-0.1-1.9-0.6-1.9c-0.8,0-1.3,0.4-1.9,1.5
				c-2.7,4.1-4.5,6.8-13.8,11.3c-3.9,1.8-8.4,2.9-12,2.9c-7.8,0-10.9-6-10.9-13.5c0-10,4.7-20.4,11.9-29
				c4.6-5.7,11.6-12.2,19.8-12.2c7.8,0,13.6,5.8,12.8,16.6C244.9,162.1,245.6,162.5,246.3,162.5 M210.7,122V75.1
				c0-5.8,4.1-7.5,8.6-7.7c1.7,0,1.9-2.2-0.3-2.2h-27.6c-1.9,0-2.2,2.1-0.3,2.2c4.2,0.5,9.1,2.5,9.1,7.7V122c0,5.3-1.9,8.6-8,8.6
				c-2.4,0-1.8,2,0,2h27.1c1.4,0,1.8-2-0.6-2C212.9,130.5,210.7,126.7,210.7,122 M145.2,75.3c0-2.1-0.8-4.2-3.6-5.2
				c-2.3-0.8-4.4-1.1-6.7-1.5c-3.3-0.6-2.7-3.8,0.3-3.8c1.9,0,11.1,0.7,22.1,0.7c6.4,0,15.5-0.3,19.9-0.6c2.8-0.2,3,2.8,1.1,3.3
				c-1.9,0.6-11.1,2.8-27.4,17.7c-16.9,15.5-38.6,38.4-38.6,38.4s48.8,58.2,57.4,65.1c8.8,7.2,14.9,7.7,21.6,8.3
				c1.7,0.1,2.2,3.3,0,3.3h-38.1c0,0-47.3-57.1-55-62.4c-1.4-0.8-4.7-1.9-5,1.9c-0.3,3.6-0.6,33.9,0.3,40.5
				c0.8,6.6,3.6,16.3,19.4,16.3c1.9,0,3,3.7,0.3,3.6c-9.3-0.5-16.3-0.5-27.8-0.5c-10,0-23.9,0.5-25.8,0.5c-3.3,0-3.3-3-0.3-3.3
				c4.4-0.3,14.9-0.8,15.6-17.7c0.7-17.4,0.3-90.8,0-98.8c-0.1-5.5-4.8-13-17-13c-1.9,0-1.7-3.3,0.6-3.3h52c1.9,0,3,3.2-0.3,3.5
				c-3.3,0.3-15.9,0.6-16.3,17.5c-0.5,16.9-0.5,43-0.5,44.1c0,1.4,0.6,2.8,2.5,1.4c6-4.1,23.8-21.5,37-36.4
				c5.2-5.9,8.8-11.1,11.3-15.9C144.7,78.4,145.2,76.9,145.2,75.3"/>
			<path class="st1" d="M379.6,223.9c-1.1,0-1.4,1.9,0.1,1.9c1.7,0,5.2,0.5,5.2,5.5l-0.3,40.9c0,4.4-1.6,8.1-5.7,8.1
				c-1.4,0-1.4,1.8-0.3,1.8h17.1c1.1,0,1.1-1.8-0.2-1.8c-2.5,0-6.8-1.1-6.9-8.1l-0.4-41.7c0,0,43.7,51.3,44,51.6h2.9l0.3-49.2
				c0-4.9,2.1-7.5,7.4-7.5c1.1,0,1.1-1.7,0-1.7h-19.1c-1.1,0-1.1,1.7,0,1.7c1.9,0,7.8,0.4,7.9,6.7l0.5,35.8l-37.5-44.2L379.6,223.9
				L379.6,223.9z M326.8,252.6c0-14.9,6.9-26.4,19.6-26.4c11.3,0,19.9,11,19.9,26.4c0,19.1-7.7,27.5-19.9,27.5
				C334.6,280.1,326.8,268.6,326.8,252.6 M346.5,282.8c17,0,29.3-11.9,29.3-30.1c0-16-11.9-29-29.3-29c-17,0-29.1,13.3-29.1,29
				C317.4,269.8,328.9,282.8,346.5,282.8 M264.7,231.7c0-5.3,3-5.5,10.2-5.5c12.4,0,25,6.2,25,25.9c0,19.2-10.5,27.4-24.4,27.4h-3
				c-3.7,0-7.8-0.7-7.8-8V231.7L264.7,231.7z M250.4,223.6c-1.9,0-1.6,2.2-0.5,2.2c2.2,0,5.9,1.1,5.9,5.5v41.6c0,4.4-1,7.2-6.3,7.2
				c-1.3,0-1.3,2.1-0.1,2.1h27.7c12.2,0,32.3-5.8,32.3-29.9c0-24.3-16.6-28.8-32.6-28.8L250.4,223.6L250.4,223.6z M181.7,223.9
				c-1.1,0-1.4,1.9,0.1,1.9c1.7,0,5.2,0.5,5.2,5.5l-0.3,40.9c0,4.4-1.6,8.1-5.7,8.1c-1.4,0-1.4,1.8-0.3,1.8h17
				c1.1,0,1.1-1.8-0.2-1.8c-2.5,0-6.8-1.1-6.9-8.1l-0.4-41.7c0,0,43.7,51.3,44,51.6h3l0.3-49.2c0-4.9,2.1-7.5,7.4-7.5
				c1.1,0,1.1-1.7,0-1.7h-19.1c-1.1,0-1.1,1.7,0,1.7c1.9,0,7.8,0.4,7.9,6.7l0.5,35.8l-37.5-44.2L181.7,223.9L181.7,223.9z
				 M128.7,252.6c0-14.9,6.9-26.4,19.6-26.4c11.3,0,19.9,11,19.9,26.4c0,19.1-7.7,27.5-19.9,27.5
				C136.4,280.1,128.7,268.6,128.7,252.6 M148.3,282.8c17,0,29.3-11.9,29.3-30.1c0-16-11.9-29-29.3-29c-17,0-29.1,13.3-29.1,29
				C119.2,269.8,130.7,282.8,148.3,282.8 M434.7,314.2H63.4v8h371.2L434.7,314.2L434.7,314.2z M434.7,302.9H63.4v3.5h371.2
				L434.7,302.9L434.7,302.9z M62.6,224h23.8c1.2,0,1.6,1.9,0.1,1.9c-2.3,0-7,1.1-7,6.1v41.3c0,4.7,2.3,6.4,12.5,6.4
				c9.9,0,19.2-1.2,23.8-14.3c0.4-1.1,2.1-1,1.8,0.6l-3,16.3H63.4c-1.8,0-1.4-2.1-0.3-2.1c3.3,0,7.4-1.6,7.4-7.6v-39.5
				c0-5.1-2.9-7.2-7.9-7.2C61.3,225.9,61.2,224,62.6,224"/>
		</g>
	</g>
</g>
</svg>
